<svg width="21" height="30" viewBox="0 0 21 30" fill="none" xmlns="http://www.w3.org/2000/svg">
<path d="M19.0352 8.2352C18.9915 7.3725 18.3109 6.69233 17.3987 6.69233V6.68919H14.9663V4.96611C14.9663 2.2277 12.7385 0 9.99999 0C7.26157 0 5.03387 2.2277 5.03387 4.96611V6.68919H2.63519C1.77137 6.68919 1.05928 7.36622 1.0156 8.22882L0.00208201 28.2457C-0.020418 28.6894 0.140224 29.1482 0.446305 29.4702C0.752386 29.7923 1.17735 30 1.62168 30H18.446C18.8903 30 19.3152 29.7923 19.6214 29.4702C19.9275 29.1482 20.0796 28.7021 20.0572 28.2584L19.0352 8.2352ZM8.05586 20.3918C8.40968 19.6087 9.06076 19.0341 9.96228 19.0341C10.2002 19.0341 10.4555 19.0742 10.7273 19.1609C12.2719 19.6556 13.8897 22.9718 8.05597 26.6941C2.22188 22.9717 3.83975 19.6556 5.38516 19.1609C5.63701 19.0805 5.87114 19.0441 6.08904 19.0441C6.99735 19.0442 7.62238 19.677 8.05586 20.3918ZM11.2218 17.6166C10.797 17.481 10.3738 17.4125 9.96218 17.4125C9.49708 17.4125 9.05266 17.501 8.64107 17.6663C7.20117 15.3771 8.32019 13.6426 9.40384 13.2958C9.65569 13.2153 9.88992 13.1789 10.1079 13.1789C11.0162 13.179 11.6414 13.8118 12.0745 14.5267C12.4282 13.7436 13.0791 13.169 13.9807 13.169C14.2186 13.169 14.474 13.2091 14.746 13.2959C16.1498 13.7453 17.6132 16.5248 13.4907 19.822C13.0716 18.767 12.249 17.9456 11.2218 17.6166ZM6.65549 4.96611C6.65549 3.12203 8.1559 1.62162 10.0002 1.62162C11.8443 1.62162 13.3447 3.12203 13.3447 4.96611V6.68919H6.65549V4.96611Z" fill="url(#paint0_linear)"/>
<defs>
<linearGradient id="paint0_linear" x1="-8.28257" y1="36.9767" x2="19.1266" y2="5.27844" gradientUnits="userSpaceOnUse">
<stop stop-color="#B41B4F"/>
<stop offset="0.479167" stop-color="#B41B4F"/>
<stop offset="1" stop-color="#DF2665"/>
</linearGradient>
</defs>
</svg>
